# Wavefront OBJ file automatically generated by Tiled2Unity

# Vertices (Count = 484)
v 0 -0.16 0
v -0.16 -0.16 0
v -0.16 0 0
v 0 0 0
v -0.32 -0.16 0
v -0.32 0 0
v -0.48 -0.16 0
v -0.48 0 0
v -0.64 -0.16 0
v -0.64 0 0
v -0.8 -0.16 0
v -0.8 0 0
v -0.96 -0.16 0
v -0.96 0 0
v -1.12 -0.16 0
v -1.12 0 0
v -1.28 -0.16 0
v -1.28 0 0
v -1.44 -0.16 0
v -1.44 0 0
v -1.6 -0.16 0
v -1.6 0 0
v -1.76 -0.16 0
v -1.76 0 0
v -1.92 -0.16 0
v -1.92 0 0
v -2.08 -0.16 0
v -2.08 0 0
v -2.24 -0.16 0
v -2.24 0 0
v -2.4 -0.16 0
v -2.4 0 0
v -2.56 -0.16 0
v -2.56 0 0
v -2.72 -0.16 0
v -2.72 0 0
v -2.88 -0.16 0
v -2.88 0 0
v -3.04 -0.16 0
v -3.04 0 0
v -3.2 -0.16 0
v -3.2 0 0
v -3.36 -0.16 0
v -3.36 0 0
v 0 -0.32 0
v -0.16 -0.32 0
v -0.32 -0.32 0
v -0.48 -0.32 0
v -0.64 -0.32 0
v -0.8 -0.32 0
v -0.96 -0.32 0
v -1.12 -0.32 0
v -1.28 -0.32 0
v -1.44 -0.32 0
v -1.6 -0.32 0
v -1.76 -0.32 0
v -1.92 -0.32 0
v -2.08 -0.32 0
v -2.24 -0.32 0
v -2.4 -0.32 0
v -2.56 -0.32 0
v -2.72 -0.32 0
v -2.88 -0.32 0
v -3.04 -0.32 0
v -3.2 -0.32 0
v -3.36 -0.32 0
v 0 -0.48 0
v -0.16 -0.48 0
v -0.32 -0.48 0
v -0.48 -0.48 0
v -0.64 -0.48 0
v -0.8 -0.48 0
v -0.96 -0.48 0
v -1.12 -0.48 0
v -1.28 -0.48 0
v -1.44 -0.48 0
v -1.6 -0.48 0
v -1.76 -0.48 0
v -1.92 -0.48 0
v -2.08 -0.48 0
v -2.24 -0.48 0
v -2.4 -0.48 0
v -2.56 -0.48 0
v -2.72 -0.48 0
v -2.88 -0.48 0
v -3.04 -0.48 0
v -3.2 -0.48 0
v -3.36 -0.48 0
v 0 -0.64 0
v -0.16 -0.64 0
v -0.32 -0.64 0
v -0.48 -0.64 0
v -0.64 -0.64 0
v -0.8 -0.64 0
v -0.96 -0.64 0
v -1.12 -0.64 0
v -1.28 -0.64 0
v -1.44 -0.64 0
v -1.6 -0.64 0
v -1.76 -0.64 0
v -1.92 -0.64 0
v -2.08 -0.64 0
v -2.24 -0.64 0
v -2.4 -0.64 0
v -2.56 -0.64 0
v -2.72 -0.64 0
v -2.88 -0.64 0
v -3.04 -0.64 0
v -3.2 -0.64 0
v -3.36 -0.64 0
v -2.72 -0.8 0
v -2.88 -0.8 0
v -3.04 -0.8 0
v -3.2 -0.8 0
v -3.36 -0.8 0
v 0 -0.96 0
v -0.16 -0.96 0
v -0.16 -0.8 0
v 0 -0.8 0
v -0.32 -0.96 0
v -0.32 -0.8 0
v -0.48 -0.96 0
v -0.48 -0.8 0
v -0.64 -0.96 0
v -0.64 -0.8 0
v -0.8 -0.96 0
v -0.8 -0.8 0
v -0.96 -0.96 0
v -0.96 -0.8 0
v -1.12 -0.96 0
v -1.12 -0.8 0
v -1.28 -0.96 0
v -1.28 -0.8 0
v -1.44 -0.96 0
v -1.44 -0.8 0
v -1.6 -0.96 0
v -1.6 -0.8 0
v -1.76 -0.96 0
v -1.76 -0.8 0
v -1.92 -0.96 0
v -1.92 -0.8 0
v -2.08 -0.96 0
v -2.08 -0.8 0
v -2.24 -0.96 0
v -2.24 -0.8 0
v -2.4 -0.96 0
v -2.4 -0.8 0
v -2.56 -0.96 0
v -2.56 -0.8 0
v -2.72 -0.96 0
v -2.88 -0.96 0
v -3.04 -0.96 0
v -3.2 -0.96 0
v -3.36 -0.96 0
v 0 -1.12 0
v -0.16 -1.12 0
v -0.32 -1.12 0
v -0.48 -1.12 0
v -0.64 -1.12 0
v -0.8 -1.12 0
v -0.96 -1.12 0
v -1.12 -1.12 0
v -1.28 -1.12 0
v -1.44 -1.12 0
v -1.6 -1.12 0
v -1.76 -1.12 0
v -1.92 -1.12 0
v -2.08 -1.12 0
v -2.24 -1.12 0
v -2.4 -1.12 0
v -2.56 -1.12 0
v -2.72 -1.12 0
v -2.88 -1.12 0
v -3.04 -1.12 0
v -3.2 -1.12 0
v -3.36 -1.12 0
v 0 -1.28 0
v -0.16 -1.28 0
v -0.32 -1.28 0
v -0.48 -1.28 0
v -0.64 -1.28 0
v -0.8 -1.28 0
v -0.96 -1.28 0
v -1.12 -1.28 0
v -1.28 -1.28 0
v -1.44 -1.28 0
v -1.6 -1.28 0
v -1.76 -1.28 0
v -1.92 -1.28 0
v -2.08 -1.28 0
v -2.24 -1.28 0
v -2.4 -1.28 0
v -2.56 -1.28 0
v -2.72 -1.28 0
v -2.88 -1.28 0
v -3.04 -1.28 0
v -3.2 -1.28 0
v -3.36 -1.28 0
v 0 -1.44 0
v -0.16 -1.44 0
v -0.32 -1.44 0
v -0.48 -1.44 0
v -0.64 -1.44 0
v -0.8 -1.44 0
v -0.96 -1.44 0
v -1.12 -1.44 0
v -1.28 -1.44 0
v -1.44 -1.44 0
v -1.6 -1.44 0
v -1.76 -1.44 0
v -1.92 -1.44 0
v -2.08 -1.44 0
v -2.24 -1.44 0
v -2.4 -1.44 0
v -2.56 -1.44 0
v -2.72 -1.44 0
v -2.88 -1.44 0
v -3.04 -1.44 0
v -3.2 -1.44 0
v -3.36 -1.44 0
v 0 -1.6 0
v -0.16 -1.6 0
v -0.32 -1.6 0
v -0.48 -1.6 0
v -0.64 -1.6 0
v -0.8 -1.6 0
v -0.96 -1.6 0
v -1.12 -1.6 0
v -1.28 -1.6 0
v -1.44 -1.6 0
v -1.6 -1.6 0
v -1.76 -1.6 0
v -1.92 -1.6 0
v -2.08 -1.6 0
v -2.24 -1.6 0
v -2.4 -1.6 0
v -2.56 -1.6 0
v -2.72 -1.6 0
v -2.88 -1.6 0
v -3.04 -1.6 0
v -3.2 -1.6 0
v -3.36 -1.6 0
v -1.76 -1.76 0
v -1.92 -1.76 0
v -2.08 -1.76 0
v -2.24 -1.76 0
v -2.4 -1.76 0
v -2.56 -1.76 0
v -2.72 -1.76 0
v -2.88 -1.76 0
v -3.04 -1.76 0
v -3.2 -1.76 0
v -3.36 -1.76 0
v 0 -1.92 0
v -0.16 -1.92 0
v -0.16 -1.76 0
v 0 -1.76 0
v -0.32 -1.92 0
v -0.32 -1.76 0
v -0.48 -1.92 0
v -0.48 -1.76 0
v -0.64 -1.92 0
v -0.64 -1.76 0
v -0.8 -1.92 0
v -0.8 -1.76 0
v -0.96 -1.92 0
v -0.96 -1.76 0
v -1.12 -1.92 0
v -1.12 -1.76 0
v -1.28 -1.92 0
v -1.28 -1.76 0
v -1.44 -1.92 0
v -1.44 -1.76 0
v -1.6 -1.92 0
v -1.6 -1.76 0
v -1.76 -1.92 0
v -1.92 -1.92 0
v -2.08 -1.92 0
v -2.24 -1.92 0
v -2.4 -1.92 0
v -2.56 -1.92 0
v -2.72 -1.92 0
v -2.88 -1.92 0
v -3.04 -1.92 0
v -3.2 -1.92 0
v -3.36 -1.92 0
v 0 -2.08 0
v -0.16 -2.08 0
v -0.32 -2.08 0
v -0.48 -2.08 0
v -0.64 -2.08 0
v -0.8 -2.08 0
v -0.96 -2.08 0
v -1.12 -2.08 0
v -1.28 -2.08 0
v -1.44 -2.08 0
v -1.6 -2.08 0
v -1.76 -2.08 0
v -1.92 -2.08 0
v -2.08 -2.08 0
v -2.24 -2.08 0
v -2.4 -2.08 0
v -2.56 -2.08 0
v -2.72 -2.08 0
v -2.88 -2.08 0
v -3.04 -2.08 0
v -3.2 -2.08 0
v -3.36 -2.08 0
v 0 -2.24 0
v -0.16 -2.24 0
v -0.32 -2.24 0
v -0.48 -2.24 0
v -0.64 -2.24 0
v -0.8 -2.24 0
v -0.96 -2.24 0
v -1.12 -2.24 0
v -1.28 -2.24 0
v -1.44 -2.24 0
v -1.6 -2.24 0
v -1.76 -2.24 0
v -1.92 -2.24 0
v -2.08 -2.24 0
v -2.24 -2.24 0
v -2.4 -2.24 0
v -2.56 -2.24 0
v -2.72 -2.24 0
v -2.88 -2.24 0
v -3.04 -2.24 0
v -3.2 -2.24 0
v -3.36 -2.24 0
v 0 -2.4 0
v -0.16 -2.4 0
v -0.32 -2.4 0
v -0.48 -2.4 0
v -0.64 -2.4 0
v -0.8 -2.4 0
v -0.96 -2.4 0
v -1.12 -2.4 0
v -1.28 -2.4 0
v -1.44 -2.4 0
v -1.6 -2.4 0
v -1.76 -2.4 0
v -1.92 -2.4 0
v -2.08 -2.4 0
v -2.24 -2.4 0
v -2.4 -2.4 0
v -2.56 -2.4 0
v -2.72 -2.4 0
v -2.88 -2.4 0
v -3.04 -2.4 0
v -3.2 -2.4 0
v -3.36 -2.4 0
v 0 -2.56 0
v -0.16 -2.56 0
v -0.32 -2.56 0
v -0.48 -2.56 0
v -0.64 -2.56 0
v -0.8 -2.56 0
v -0.96 -2.56 0
v -1.12 -2.56 0
v -1.28 -2.56 0
v -1.44 -2.56 0
v -1.6 -2.56 0
v -1.76 -2.56 0
v -1.92 -2.56 0
v -2.08 -2.56 0
v -2.24 -2.56 0
v -2.4 -2.56 0
v -2.56 -2.56 0
v -2.72 -2.56 0
v -2.88 -2.56 0
v -3.04 -2.56 0
v -3.2 -2.56 0
v -3.36 -2.56 0
v 0 -2.72 0
v -0.16 -2.72 0
v -0.32 -2.72 0
v -0.48 -2.72 0
v -0.64 -2.72 0
v -0.8 -2.72 0
v -0.96 -2.72 0
v -1.12 -2.72 0
v -1.28 -2.72 0
v -1.44 -2.72 0
v -1.6 -2.72 0
v -1.76 -2.72 0
v -1.92 -2.72 0
v -2.08 -2.72 0
v -2.24 -2.72 0
v -2.4 -2.72 0
v -2.56 -2.72 0
v -2.72 -2.72 0
v -2.88 -2.72 0
v -3.04 -2.72 0
v -3.2 -2.72 0
v -3.36 -2.72 0
v 0 -2.88 0
v -0.16 -2.88 0
v -0.32 -2.88 0
v -0.48 -2.88 0
v -0.64 -2.88 0
v -0.8 -2.88 0
v -0.96 -2.88 0
v -1.12 -2.88 0
v -1.28 -2.88 0
v -1.44 -2.88 0
v -1.6 -2.88 0
v -1.76 -2.88 0
v -1.92 -2.88 0
v -2.08 -2.88 0
v -2.24 -2.88 0
v -2.4 -2.88 0
v -2.56 -2.88 0
v -2.72 -2.88 0
v -2.88 -2.88 0
v -3.04 -2.88 0
v -3.2 -2.88 0
v -3.36 -2.88 0
v 0 -3.04 0
v -0.16 -3.04 0
v -0.32 -3.04 0
v -0.48 -3.04 0
v -0.64 -3.04 0
v -0.8 -3.04 0
v -0.96 -3.04 0
v -1.12 -3.04 0
v -1.28 -3.04 0
v -1.44 -3.04 0
v -1.6 -3.04 0
v -1.76 -3.04 0
v -1.92 -3.04 0
v -2.08 -3.04 0
v -2.24 -3.04 0
v -2.4 -3.04 0
v -2.56 -3.04 0
v -2.72 -3.04 0
v -2.88 -3.04 0
v -3.04 -3.04 0
v -3.2 -3.04 0
v -3.36 -3.04 0
v 0 -3.2 0
v -0.16 -3.2 0
v -0.32 -3.2 0
v -0.48 -3.2 0
v -0.64 -3.2 0
v -0.8 -3.2 0
v -0.96 -3.2 0
v -1.12 -3.2 0
v -1.28 -3.2 0
v -1.44 -3.2 0
v -1.6 -3.2 0
v -1.76 -3.2 0
v -1.92 -3.2 0
v -2.08 -3.2 0
v -2.24 -3.2 0
v -2.4 -3.2 0
v -2.56 -3.2 0
v -2.72 -3.2 0
v -2.88 -3.2 0
v -3.04 -3.2 0
v -3.2 -3.2 0
v -3.36 -3.2 0
v 0 -3.36 0
v -0.16 -3.36 0
v -0.32 -3.36 0
v -0.48 -3.36 0
v -0.64 -3.36 0
v -0.8 -3.36 0
v -0.96 -3.36 0
v -1.12 -3.36 0
v -1.28 -3.36 0
v -1.44 -3.36 0
v -1.6 -3.36 0
v -1.76 -3.36 0
v -1.92 -3.36 0
v -2.08 -3.36 0
v -2.24 -3.36 0
v -2.4 -3.36 0
v -2.56 -3.36 0
v -2.72 -3.36 0
v -2.88 -3.36 0
v -3.04 -3.36 0
v -3.2 -3.36 0
v -3.36 -3.36 0

# Texture cooridinates (Count = 68)
vt 0.4763125 0.974481
vt 0.5236875 0.974481
vt 0.5236875 0.9998779
vt 0.4763125 0.9998779
vt 0.04774112 0.8719169
vt 0.09511603 0.8719169
vt 0.09511603 0.8973138
vt 0.04774112 0.8973138
vt 0.04774112 0.8462759
vt 0.09511603 0.8462759
vt 0.09511603 0.8716728
vt 0.04774112 0.8716728
vt 0.0001220703 0.8719169
vt 0.04749698 0.8719169
vt 0.04749698 0.8973138
vt 0.0001220703 0.8973138
vt 0.3334554 0.4360195
vt 0.3808303 0.4360195
vt 0.3808303 0.4614164
vt 0.3334554 0.4614164
vt 0.3810745 0.4360195
vt 0.4284494 0.4360195
vt 0.4284494 0.4614164
vt 0.3810745 0.4614164
vt 0.4286935 0.4360195
vt 0.4760684 0.4360195
vt 0.4760684 0.4614164
vt 0.4286935 0.4614164
vt 0.05012207 0.9216907
vt 0.09987793 0.9216907
vt 0.09987793 0.9410544
vt 0.05012207 0.9410544
vt 0.1001221 0.9216907
vt 0.1498779 0.9216907
vt 0.1498779 0.9410544
vt 0.1001221 0.9410544
vt 0.0001220703 0.9020829
vt 0.04987793 0.9020829
vt 0.04987793 0.9214466
vt 0.0001220703 0.9214466
vt 0.0001220703 0.2728493
vt 0.1248779 0.2728493
vt 0.1248779 0.3180597
vt 0.0001220703 0.3180597
vt 0.1251221 0.2728493
vt 0.2498779 0.2728493
vt 0.2498779 0.3180597
vt 0.1251221 0.3180597
vt 0.0001220703 0.2273948
vt 0.1248779 0.2273948
vt 0.1248779 0.2726052
vt 0.0001220703 0.2726052
vt 0.1251221 0.2273948
vt 0.2498779 0.2273948
vt 0.2498779 0.2726052
vt 0.1251221 0.2726052
vt 0.0001220703 0.3183039
vt 0.1248779 0.3183039
vt 0.1248779 0.3635143
vt 0.0001220703 0.3635143
vt 0.1251221 0.3183039
vt 0.2498779 0.3183039
vt 0.2498779 0.3635143
vt 0.1251221 0.3635143
vt 0.2501221 0.3183039
vt 0.3748779 0.3183039
vt 0.3748779 0.3635143
vt 0.2501221 0.3635143

# Normal
vn 0 0 -1

# Groups (Count = 4)

g mesh_0001
f 1/1/1 2/2/1 3/3/1 4/4/1
f 2/1/1 5/2/1 6/3/1 3/4/1
f 5/1/1 7/2/1 8/3/1 6/4/1
f 7/1/1 9/2/1 10/3/1 8/4/1
f 9/1/1 11/2/1 12/3/1 10/4/1
f 11/1/1 13/2/1 14/3/1 12/4/1
f 13/1/1 15/2/1 16/3/1 14/4/1
f 15/1/1 17/2/1 18/3/1 16/4/1
f 17/1/1 19/2/1 20/3/1 18/4/1
f 19/1/1 21/2/1 22/3/1 20/4/1
f 21/1/1 23/2/1 24/3/1 22/4/1
f 23/1/1 25/2/1 26/3/1 24/4/1
f 25/1/1 27/2/1 28/3/1 26/4/1
f 27/1/1 29/2/1 30/3/1 28/4/1
f 29/1/1 31/2/1 32/3/1 30/4/1
f 31/1/1 33/2/1 34/3/1 32/4/1
f 33/1/1 35/2/1 36/3/1 34/4/1
f 35/1/1 37/2/1 38/3/1 36/4/1
f 37/1/1 39/2/1 40/3/1 38/4/1
f 39/1/1 41/2/1 42/3/1 40/4/1
f 41/1/1 43/2/1 44/3/1 42/4/1
f 45/1/1 46/2/1 2/3/1 1/4/1
f 46/1/1 47/2/1 5/3/1 2/4/1
f 47/1/1 48/2/1 7/3/1 5/4/1
f 48/1/1 49/2/1 9/3/1 7/4/1
f 49/1/1 50/2/1 11/3/1 9/4/1
f 50/1/1 51/2/1 13/3/1 11/4/1
f 51/1/1 52/2/1 15/3/1 13/4/1
f 52/1/1 53/2/1 17/3/1 15/4/1
f 53/1/1 54/2/1 19/3/1 17/4/1
f 54/1/1 55/2/1 21/3/1 19/4/1
f 55/1/1 56/2/1 23/3/1 21/4/1
f 56/1/1 57/2/1 25/3/1 23/4/1
f 57/1/1 58/2/1 27/3/1 25/4/1
f 58/1/1 59/2/1 29/3/1 27/4/1
f 59/1/1 60/2/1 31/3/1 29/4/1
f 60/1/1 61/2/1 33/3/1 31/4/1
f 61/1/1 62/2/1 35/3/1 33/4/1
f 62/1/1 63/2/1 37/3/1 35/4/1
f 63/1/1 64/2/1 39/3/1 37/4/1
f 64/1/1 65/2/1 41/3/1 39/4/1
f 65/1/1 66/2/1 43/3/1 41/4/1
f 67/1/1 68/2/1 46/3/1 45/4/1
f 68/1/1 69/2/1 47/3/1 46/4/1
f 69/1/1 70/2/1 48/3/1 47/4/1
f 70/1/1 71/2/1 49/3/1 48/4/1
f 71/1/1 72/2/1 50/3/1 49/4/1
f 72/1/1 73/2/1 51/3/1 50/4/1
f 73/1/1 74/2/1 52/3/1 51/4/1
f 74/1/1 75/2/1 53/3/1 52/4/1
f 75/1/1 76/2/1 54/3/1 53/4/1
f 76/1/1 77/2/1 55/3/1 54/4/1
f 77/1/1 78/2/1 56/3/1 55/4/1
f 78/1/1 79/2/1 57/3/1 56/4/1
f 79/1/1 80/2/1 58/3/1 57/4/1
f 80/1/1 81/2/1 59/3/1 58/4/1
f 81/1/1 82/2/1 60/3/1 59/4/1
f 82/1/1 83/2/1 61/3/1 60/4/1
f 83/1/1 84/2/1 62/3/1 61/4/1
f 84/1/1 85/2/1 63/3/1 62/4/1
f 85/1/1 86/2/1 64/3/1 63/4/1
f 86/1/1 87/2/1 65/3/1 64/4/1
f 87/1/1 88/2/1 66/3/1 65/4/1
f 89/1/1 90/2/1 68/3/1 67/4/1
f 90/1/1 91/2/1 69/3/1 68/4/1
f 91/1/1 92/2/1 70/3/1 69/4/1
f 92/1/1 93/2/1 71/3/1 70/4/1
f 93/1/1 94/2/1 72/3/1 71/4/1
f 94/1/1 95/2/1 73/3/1 72/4/1
f 95/1/1 96/2/1 74/3/1 73/4/1
f 96/1/1 97/2/1 75/3/1 74/4/1
f 97/1/1 98/2/1 76/3/1 75/4/1
f 98/1/1 99/2/1 77/3/1 76/4/1
f 99/1/1 100/2/1 78/3/1 77/4/1
f 100/1/1 101/2/1 79/3/1 78/4/1
f 101/1/1 102/2/1 80/3/1 79/4/1
f 102/1/1 103/2/1 81/3/1 80/4/1
f 103/1/1 104/2/1 82/3/1 81/4/1
f 104/1/1 105/2/1 83/3/1 82/4/1
f 105/1/1 106/2/1 84/3/1 83/4/1
f 106/1/1 107/2/1 85/3/1 84/4/1
f 107/1/1 108/2/1 86/3/1 85/4/1
f 108/1/1 109/2/1 87/3/1 86/4/1
f 109/1/1 110/2/1 88/3/1 87/4/1
f 111/1/1 112/2/1 107/3/1 106/4/1
f 112/1/1 113/2/1 108/3/1 107/4/1
f 113/1/1 114/2/1 109/3/1 108/4/1
f 114/1/1 115/2/1 110/3/1 109/4/1
f 116/5/1 117/6/1 118/7/1 119/8/1
f 117/5/1 120/6/1 121/7/1 118/8/1
f 120/5/1 122/6/1 123/7/1 121/8/1
f 122/5/1 124/6/1 125/7/1 123/8/1
f 124/5/1 126/6/1 127/7/1 125/8/1
f 126/5/1 128/6/1 129/7/1 127/8/1
f 128/5/1 130/6/1 131/7/1 129/8/1
f 130/5/1 132/6/1 133/7/1 131/8/1
f 132/5/1 134/6/1 135/7/1 133/8/1
f 134/5/1 136/6/1 137/7/1 135/8/1
f 136/5/1 138/6/1 139/7/1 137/8/1
f 138/5/1 140/6/1 141/7/1 139/8/1
f 140/5/1 142/6/1 143/7/1 141/8/1
f 142/5/1 144/6/1 145/7/1 143/8/1
f 144/5/1 146/6/1 147/7/1 145/8/1
f 146/5/1 148/6/1 149/7/1 147/8/1
f 150/1/1 151/2/1 112/3/1 111/4/1
f 151/1/1 152/2/1 113/3/1 112/4/1
f 152/1/1 153/2/1 114/3/1 113/4/1
f 153/1/1 154/2/1 115/3/1 114/4/1
f 155/5/1 156/6/1 117/7/1 116/8/1
f 156/5/1 157/6/1 120/7/1 117/8/1
f 157/5/1 158/6/1 122/7/1 120/8/1
f 158/5/1 159/6/1 124/7/1 122/8/1
f 159/5/1 160/6/1 126/7/1 124/8/1
f 160/5/1 161/6/1 128/7/1 126/8/1
f 161/5/1 162/6/1 130/7/1 128/8/1
f 162/5/1 163/6/1 132/7/1 130/8/1
f 163/5/1 164/6/1 134/7/1 132/8/1
f 164/5/1 165/6/1 136/7/1 134/8/1
f 165/5/1 166/6/1 138/7/1 136/8/1
f 166/5/1 167/6/1 140/7/1 138/8/1
f 167/5/1 168/6/1 142/7/1 140/8/1
f 168/5/1 169/6/1 144/7/1 142/8/1
f 169/5/1 170/6/1 146/7/1 144/8/1
f 170/5/1 171/6/1 148/7/1 146/8/1
f 172/1/1 173/2/1 151/3/1 150/4/1
f 173/1/1 174/2/1 152/3/1 151/4/1
f 174/1/1 175/2/1 153/3/1 152/4/1
f 175/1/1 176/2/1 154/3/1 153/4/1
f 177/5/1 178/6/1 156/7/1 155/8/1
f 178/5/1 179/6/1 157/7/1 156/8/1
f 179/5/1 180/6/1 158/7/1 157/8/1
f 180/5/1 181/6/1 159/7/1 158/8/1
f 181/5/1 182/6/1 160/7/1 159/8/1
f 182/5/1 183/6/1 161/7/1 160/8/1
f 183/5/1 184/6/1 162/7/1 161/8/1
f 184/5/1 185/6/1 163/7/1 162/8/1
f 185/5/1 186/6/1 164/7/1 163/8/1
f 186/5/1 187/6/1 165/7/1 164/8/1
f 187/5/1 188/6/1 166/7/1 165/8/1
f 188/5/1 189/6/1 167/7/1 166/8/1
f 189/5/1 190/6/1 168/7/1 167/8/1
f 190/5/1 191/6/1 169/7/1 168/8/1
f 191/5/1 192/6/1 170/7/1 169/8/1
f 192/5/1 193/6/1 171/7/1 170/8/1
f 194/1/1 195/2/1 173/3/1 172/4/1
f 195/1/1 196/2/1 174/3/1 173/4/1
f 196/1/1 197/2/1 175/3/1 174/4/1
f 197/1/1 198/2/1 176/3/1 175/4/1
f 199/5/1 200/6/1 178/7/1 177/8/1
f 200/5/1 201/6/1 179/7/1 178/8/1
f 201/5/1 202/6/1 180/7/1 179/8/1
f 202/5/1 203/6/1 181/7/1 180/8/1
f 203/5/1 204/6/1 182/7/1 181/8/1
f 204/5/1 205/6/1 183/7/1 182/8/1
f 205/5/1 206/6/1 184/7/1 183/8/1
f 206/5/1 207/6/1 185/7/1 184/8/1
f 207/5/1 208/6/1 186/7/1 185/8/1
f 208/5/1 209/6/1 187/7/1 186/8/1
f 209/5/1 210/6/1 188/7/1 187/8/1
f 210/5/1 211/6/1 189/7/1 188/8/1
f 211/5/1 212/6/1 190/7/1 189/8/1
f 212/5/1 213/6/1 191/7/1 190/8/1
f 213/5/1 214/6/1 192/7/1 191/8/1
f 214/5/1 215/6/1 193/7/1 192/8/1
f 216/1/1 217/2/1 195/3/1 194/4/1
f 217/1/1 218/2/1 196/3/1 195/4/1
f 218/1/1 219/2/1 197/3/1 196/4/1
f 219/1/1 220/2/1 198/3/1 197/4/1
f 221/9/1 222/10/1 200/11/1 199/12/1
f 222/9/1 223/10/1 201/11/1 200/12/1
f 223/9/1 224/10/1 202/11/1 201/12/1
f 224/9/1 225/10/1 203/11/1 202/12/1
f 225/9/1 226/10/1 204/11/1 203/12/1
f 226/9/1 227/10/1 205/11/1 204/12/1
f 227/9/1 228/10/1 206/11/1 205/12/1
f 228/9/1 229/10/1 207/11/1 206/12/1
f 229/9/1 230/10/1 208/11/1 207/12/1
f 230/9/1 231/10/1 209/11/1 208/12/1
f 231/9/1 232/10/1 210/11/1 209/12/1
f 232/5/1 233/6/1 211/7/1 210/8/1
f 233/5/1 234/6/1 212/7/1 211/8/1
f 234/5/1 235/6/1 213/7/1 212/8/1
f 235/5/1 236/6/1 214/7/1 213/8/1
f 236/5/1 237/6/1 215/7/1 214/8/1
f 238/1/1 239/2/1 217/3/1 216/4/1
f 239/1/1 240/2/1 218/3/1 217/4/1
f 240/1/1 241/2/1 219/3/1 218/4/1
f 241/1/1 242/2/1 220/3/1 219/4/1
f 243/13/1 244/14/1 233/15/1 232/16/1
f 244/5/1 245/6/1 234/7/1 233/8/1
f 245/5/1 246/6/1 235/7/1 234/8/1
f 246/5/1 247/6/1 236/7/1 235/8/1
f 247/5/1 248/6/1 237/7/1 236/8/1
f 249/1/1 250/2/1 239/3/1 238/4/1
f 250/1/1 251/2/1 240/3/1 239/4/1
f 251/1/1 252/2/1 241/3/1 240/4/1
f 252/1/1 253/2/1 242/3/1 241/4/1
f 254/1/1 255/2/1 256/3/1 257/4/1
f 255/1/1 258/2/1 259/3/1 256/4/1
f 258/1/1 260/2/1 261/3/1 259/4/1
f 260/1/1 262/2/1 263/3/1 261/4/1
f 262/1/1 264/2/1 265/3/1 263/4/1
f 264/1/1 266/2/1 267/3/1 265/4/1
f 266/1/1 268/2/1 269/3/1 267/4/1
f 268/1/1 270/2/1 271/3/1 269/4/1
f 270/1/1 272/2/1 273/3/1 271/4/1
f 272/1/1 274/2/1 275/3/1 273/4/1
f 276/13/1 277/14/1 244/15/1 243/16/1
f 277/5/1 278/6/1 245/7/1 244/8/1
f 278/5/1 279/6/1 246/7/1 245/8/1
f 279/5/1 280/6/1 247/7/1 246/8/1
f 280/5/1 281/6/1 248/7/1 247/8/1
f 282/1/1 283/2/1 250/3/1 249/4/1
f 283/1/1 284/2/1 251/3/1 250/4/1
f 284/1/1 285/2/1 252/3/1 251/4/1
f 285/1/1 286/2/1 253/3/1 252/4/1
f 287/1/1 288/2/1 255/3/1 254/4/1
f 288/1/1 289/2/1 258/3/1 255/4/1
f 289/1/1 290/2/1 260/3/1 258/4/1
f 290/1/1 291/2/1 262/3/1 260/4/1
f 291/1/1 292/2/1 264/3/1 262/4/1
f 292/1/1 293/2/1 266/3/1 264/4/1
f 293/1/1 294/2/1 268/3/1 266/4/1
f 294/1/1 295/2/1 270/3/1 268/4/1
f 295/1/1 296/2/1 272/3/1 270/4/1
f 296/1/1 297/2/1 274/3/1 272/4/1
f 298/13/1 299/14/1 277/15/1 276/16/1
f 299/5/1 300/6/1 278/7/1 277/8/1
f 300/5/1 301/6/1 279/7/1 278/8/1
f 301/5/1 302/6/1 280/7/1 279/8/1
f 302/5/1 303/6/1 281/7/1 280/8/1
f 304/1/1 305/2/1 283/3/1 282/4/1
f 305/1/1 306/2/1 284/3/1 283/4/1
f 306/1/1 307/2/1 285/3/1 284/4/1
f 307/1/1 308/2/1 286/3/1 285/4/1
f 309/1/1 310/2/1 288/3/1 287/4/1
f 310/1/1 311/2/1 289/3/1 288/4/1
f 311/1/1 312/2/1 290/3/1 289/4/1
f 312/1/1 313/2/1 291/3/1 290/4/1
f 313/1/1 314/2/1 292/3/1 291/4/1
f 314/1/1 315/2/1 293/3/1 292/4/1
f 315/1/1 316/2/1 294/3/1 293/4/1
f 316/1/1 317/2/1 295/3/1 294/4/1
f 317/1/1 318/2/1 296/3/1 295/4/1
f 318/1/1 319/2/1 297/3/1 296/4/1
f 320/13/1 321/14/1 299/15/1 298/16/1
f 321/5/1 322/6/1 300/7/1 299/8/1
f 322/5/1 323/6/1 301/7/1 300/8/1
f 323/5/1 324/6/1 302/7/1 301/8/1
f 324/5/1 325/6/1 303/7/1 302/8/1
f 326/1/1 327/2/1 305/3/1 304/4/1
f 327/1/1 328/2/1 306/3/1 305/4/1
f 328/1/1 329/2/1 307/3/1 306/4/1
f 329/1/1 330/2/1 308/3/1 307/4/1
f 331/1/1 332/2/1 310/3/1 309/4/1
f 332/1/1 333/2/1 311/3/1 310/4/1
f 333/1/1 334/2/1 312/3/1 311/4/1
f 334/1/1 335/2/1 313/3/1 312/4/1
f 335/1/1 336/2/1 314/3/1 313/4/1
f 336/1/1 337/2/1 315/3/1 314/4/1
f 337/1/1 338/2/1 316/3/1 315/4/1
f 338/1/1 339/2/1 317/3/1 316/4/1
f 339/1/1 340/2/1 318/3/1 317/4/1
f 340/1/1 341/2/1 319/3/1 318/4/1
f 342/13/1 343/14/1 321/15/1 320/16/1
f 343/5/1 344/6/1 322/7/1 321/8/1
f 344/5/1 345/6/1 323/7/1 322/8/1
f 345/5/1 346/6/1 324/7/1 323/8/1
f 346/5/1 347/6/1 325/7/1 324/8/1
f 348/1/1 349/2/1 327/3/1 326/4/1
f 349/1/1 350/2/1 328/3/1 327/4/1
f 350/1/1 351/2/1 329/3/1 328/4/1
f 351/1/1 352/2/1 330/3/1 329/4/1
f 353/1/1 354/2/1 332/3/1 331/4/1
f 354/1/1 355/2/1 333/3/1 332/4/1
f 355/1/1 356/2/1 334/3/1 333/4/1
f 356/1/1 357/2/1 335/3/1 334/4/1
f 357/1/1 358/2/1 336/3/1 335/4/1
f 358/1/1 359/2/1 337/3/1 336/4/1
f 359/1/1 360/2/1 338/3/1 337/4/1
f 360/1/1 361/2/1 339/3/1 338/4/1
f 361/1/1 362/2/1 340/3/1 339/4/1
f 362/1/1 363/2/1 341/3/1 340/4/1
f 364/13/1 365/14/1 343/15/1 342/16/1
f 365/5/1 366/6/1 344/7/1 343/8/1
f 366/5/1 367/6/1 345/7/1 344/8/1
f 367/5/1 368/6/1 346/7/1 345/8/1
f 368/5/1 369/6/1 347/7/1 346/8/1
f 370/1/1 371/2/1 349/3/1 348/4/1
f 371/1/1 372/2/1 350/3/1 349/4/1
f 372/1/1 373/2/1 351/3/1 350/4/1
f 373/1/1 374/2/1 352/3/1 351/4/1
f 375/1/1 376/2/1 354/3/1 353/4/1
f 376/1/1 377/2/1 355/3/1 354/4/1
f 377/1/1 378/2/1 356/3/1 355/4/1
f 378/1/1 379/2/1 357/3/1 356/4/1
f 379/1/1 380/2/1 358/3/1 357/4/1
f 380/1/1 381/2/1 359/3/1 358/4/1
f 381/1/1 382/2/1 360/3/1 359/4/1
f 382/1/1 383/2/1 361/3/1 360/4/1
f 383/1/1 384/2/1 362/3/1 361/4/1
f 384/1/1 385/2/1 363/3/1 362/4/1
f 386/13/1 387/14/1 365/15/1 364/16/1
f 387/5/1 388/6/1 366/7/1 365/8/1
f 388/5/1 389/6/1 367/7/1 366/8/1
f 389/5/1 390/6/1 368/7/1 367/8/1
f 390/5/1 391/6/1 369/7/1 368/8/1
f 392/1/1 393/2/1 371/3/1 370/4/1
f 393/1/1 394/2/1 372/3/1 371/4/1
f 394/1/1 395/2/1 373/3/1 372/4/1
f 395/1/1 396/2/1 374/3/1 373/4/1
f 397/1/1 398/2/1 376/3/1 375/4/1
f 398/1/1 399/2/1 377/3/1 376/4/1
f 399/1/1 400/2/1 378/3/1 377/4/1
f 400/1/1 401/2/1 379/3/1 378/4/1
f 401/1/1 402/2/1 380/3/1 379/4/1
f 402/1/1 403/2/1 381/3/1 380/4/1
f 403/1/1 404/2/1 382/3/1 381/4/1
f 404/1/1 405/2/1 383/3/1 382/4/1
f 405/1/1 406/2/1 384/3/1 383/4/1
f 406/1/1 407/2/1 385/3/1 384/4/1
f 408/13/1 409/14/1 387/15/1 386/16/1
f 409/5/1 410/6/1 388/7/1 387/8/1
f 410/5/1 411/6/1 389/7/1 388/8/1
f 411/5/1 412/6/1 390/7/1 389/8/1
f 412/5/1 413/6/1 391/7/1 390/8/1
f 414/1/1 415/2/1 393/3/1 392/4/1
f 415/1/1 416/2/1 394/3/1 393/4/1
f 416/1/1 417/2/1 395/3/1 394/4/1
f 417/1/1 418/2/1 396/3/1 395/4/1
f 419/1/1 420/2/1 398/3/1 397/4/1
f 420/1/1 421/2/1 399/3/1 398/4/1
f 421/1/1 422/2/1 400/3/1 399/4/1
f 422/1/1 423/2/1 401/3/1 400/4/1
f 423/1/1 424/2/1 402/3/1 401/4/1
f 424/1/1 425/2/1 403/3/1 402/4/1
f 425/1/1 426/2/1 404/3/1 403/4/1
f 426/1/1 427/2/1 405/3/1 404/4/1
f 427/1/1 428/2/1 406/3/1 405/4/1
f 428/1/1 429/2/1 407/3/1 406/4/1
f 430/13/1 431/14/1 409/15/1 408/16/1
f 431/5/1 432/6/1 410/7/1 409/8/1
f 432/5/1 433/6/1 411/7/1 410/8/1
f 433/5/1 434/6/1 412/7/1 411/8/1
f 434/5/1 435/6/1 413/7/1 412/8/1
f 436/1/1 437/2/1 415/3/1 414/4/1
f 437/1/1 438/2/1 416/3/1 415/4/1
f 438/1/1 439/2/1 417/3/1 416/4/1
f 439/1/1 440/2/1 418/3/1 417/4/1
f 441/1/1 442/2/1 420/3/1 419/4/1
f 442/1/1 443/2/1 421/3/1 420/4/1
f 443/1/1 444/2/1 422/3/1 421/4/1
f 444/1/1 445/2/1 423/3/1 422/4/1
f 445/1/1 446/2/1 424/3/1 423/4/1
f 446/1/1 447/2/1 425/3/1 424/4/1
f 447/1/1 448/2/1 426/3/1 425/4/1
f 448/1/1 449/2/1 427/3/1 426/4/1
f 449/1/1 450/2/1 428/3/1 427/4/1
f 450/1/1 451/2/1 429/3/1 428/4/1
f 452/13/1 453/14/1 431/15/1 430/16/1
f 453/5/1 454/6/1 432/7/1 431/8/1
f 454/5/1 455/6/1 433/7/1 432/8/1
f 455/5/1 456/6/1 434/7/1 433/8/1
f 456/5/1 457/6/1 435/7/1 434/8/1
f 458/1/1 459/2/1 437/3/1 436/4/1
f 459/1/1 460/2/1 438/3/1 437/4/1
f 460/1/1 461/2/1 439/3/1 438/4/1
f 461/1/1 462/2/1 440/3/1 439/4/1
f 463/1/1 464/2/1 442/3/1 441/4/1
f 464/1/1 465/2/1 443/3/1 442/4/1
f 465/1/1 466/2/1 444/3/1 443/4/1
f 466/1/1 467/2/1 445/3/1 444/4/1
f 467/1/1 468/2/1 446/3/1 445/4/1
f 468/1/1 469/2/1 447/3/1 446/4/1
f 469/1/1 470/2/1 448/3/1 447/4/1
f 470/1/1 471/2/1 449/3/1 448/4/1
f 471/1/1 472/2/1 450/3/1 449/4/1
f 472/1/1 473/2/1 451/3/1 450/4/1
f 474/13/1 475/14/1 453/15/1 452/16/1
f 475/17/1 476/18/1 454/19/1 453/20/1
f 476/21/1 477/22/1 455/23/1 454/24/1
f 477/25/1 478/26/1 456/27/1 455/28/1
f 478/5/1 479/6/1 457/7/1 456/8/1
f 480/1/1 481/2/1 459/3/1 458/4/1
f 481/1/1 482/2/1 460/3/1 459/4/1
f 482/1/1 483/2/1 461/3/1 460/4/1
f 483/1/1 484/2/1 462/3/1 461/4/1

g mesh_0002
f 119/29/1 118/30/1 90/31/1 89/32/1
f 118/29/1 121/30/1 91/31/1 90/32/1
f 121/29/1 123/30/1 92/31/1 91/32/1
f 123/29/1 125/30/1 93/31/1 92/32/1
f 125/29/1 127/30/1 94/31/1 93/32/1
f 127/29/1 129/30/1 95/31/1 94/32/1
f 129/29/1 131/30/1 96/31/1 95/32/1
f 131/29/1 133/30/1 97/31/1 96/32/1
f 133/29/1 135/30/1 98/31/1 97/32/1
f 135/29/1 137/30/1 99/31/1 98/32/1
f 137/29/1 139/30/1 100/31/1 99/32/1
f 139/29/1 141/30/1 101/31/1 100/32/1
f 141/29/1 143/30/1 102/31/1 101/32/1
f 143/29/1 145/30/1 103/31/1 102/32/1
f 145/29/1 147/30/1 104/31/1 103/32/1
f 147/29/1 149/30/1 105/31/1 104/32/1
f 149/33/1 111/34/1 106/35/1 105/36/1
f 148/37/1 150/38/1 111/39/1 149/40/1
f 171/37/1 172/38/1 150/39/1 148/40/1
f 193/37/1 194/38/1 172/39/1 171/40/1
f 215/37/1 216/38/1 194/39/1 193/40/1
f 237/37/1 238/38/1 216/39/1 215/40/1
f 257/29/1 256/30/1 222/31/1 221/32/1
f 256/29/1 259/30/1 223/31/1 222/32/1
f 259/29/1 261/30/1 224/31/1 223/32/1
f 261/29/1 263/30/1 225/31/1 224/32/1
f 263/29/1 265/30/1 226/31/1 225/32/1
f 265/29/1 267/30/1 227/31/1 226/32/1
f 267/29/1 269/30/1 228/31/1 227/32/1
f 269/29/1 271/30/1 229/31/1 228/32/1
f 271/29/1 273/30/1 230/31/1 229/32/1
f 273/29/1 275/30/1 231/31/1 230/32/1
f 275/33/1 243/34/1 232/35/1 231/36/1
f 248/37/1 249/38/1 238/39/1 237/40/1
f 274/37/1 276/38/1 243/39/1 275/40/1
f 281/37/1 282/38/1 249/39/1 248/40/1
f 297/37/1 298/38/1 276/39/1 274/40/1
f 303/37/1 304/38/1 282/39/1 281/40/1
f 319/37/1 320/38/1 298/39/1 297/40/1
f 325/37/1 326/38/1 304/39/1 303/40/1
f 341/37/1 342/38/1 320/39/1 319/40/1
f 347/37/1 348/38/1 326/39/1 325/40/1
f 363/37/1 364/38/1 342/39/1 341/40/1
f 369/37/1 370/38/1 348/39/1 347/40/1
f 385/37/1 386/38/1 364/39/1 363/40/1
f 391/37/1 392/38/1 370/39/1 369/40/1
f 407/37/1 408/38/1 386/39/1 385/40/1
f 413/37/1 414/38/1 392/39/1 391/40/1
f 429/37/1 430/38/1 408/39/1 407/40/1
f 435/37/1 436/38/1 414/39/1 413/40/1
f 451/37/1 452/38/1 430/39/1 429/40/1
f 457/37/1 458/38/1 436/39/1 435/40/1
f 473/37/1 474/38/1 452/39/1 451/40/1
f 479/37/1 480/38/1 458/39/1 457/40/1

g mesh_0003
f 140/41/1 142/42/1 143/43/1 141/44/1
f 142/45/1 144/46/1 145/47/1 143/48/1
f 144/45/1 146/46/1 147/47/1 145/48/1
f 146/45/1 148/46/1 149/47/1 147/48/1
f 167/49/1 168/50/1 142/51/1 140/52/1
f 168/53/1 169/54/1 144/55/1 142/56/1
f 169/41/1 170/42/1 146/43/1 144/44/1
f 170/45/1 171/46/1 148/47/1 146/48/1
f 191/41/1 192/42/1 170/43/1 169/44/1
f 192/45/1 193/46/1 171/47/1 170/48/1
f 213/49/1 214/50/1 192/51/1 191/52/1
f 214/53/1 215/54/1 193/55/1 192/56/1

g mesh_0004
f 475/57/1 476/58/1 454/59/1 453/60/1
f 476/61/1 477/62/1 455/63/1 454/64/1
f 477/65/1 478/66/1 456/67/1 455/68/1

g mesh_0005
f 169/53/1 170/54/1 146/55/1 144/56/1

g mesh_0006
f 169/49/1 170/50/1 146/51/1 144/52/1

