# Wavefront OBJ file automatically generated by Tiled2Unity

# Vertices (Count = 441)
v 0 -0.08 0
v -0.08 -0.08 0
v -0.08 0 0
v 0 0 0
v -0.16 -0.08 0
v -0.16 0 0
v -0.24 -0.08 0
v -0.24 0 0
v -0.32 -0.08 0
v -0.32 0 0
v -0.4 -0.08 0
v -0.4 0 0
v -0.48 -0.08 0
v -0.48 0 0
v -0.56 -0.08 0
v -0.56 0 0
v -0.64 -0.08 0
v -0.64 0 0
v -0.72 -0.08 0
v -0.72 0 0
v -0.8 -0.08 0
v -0.8 0 0
v -0.88 -0.08 0
v -0.88 0 0
v -0.96 -0.08 0
v -0.96 0 0
v -1.04 -0.08 0
v -1.04 0 0
v -1.12 -0.08 0
v -1.12 0 0
v -1.2 -0.08 0
v -1.2 0 0
v -1.28 -0.08 0
v -1.28 0 0
v -1.36 -0.08 0
v -1.36 0 0
v -1.44 -0.08 0
v -1.44 0 0
v -1.52 -0.08 0
v -1.52 0 0
v -1.6 -0.08 0
v -1.6 0 0
v 0 -0.16 0
v -0.08 -0.16 0
v -1.52 -0.16 0
v -1.6 -0.16 0
v 0 -0.24 0
v -0.08 -0.24 0
v -1.52 -0.24 0
v -1.6 -0.24 0
v 0 -0.32 0
v -0.08 -0.32 0
v -1.52 -0.32 0
v -1.6 -0.32 0
v 0 -0.4 0
v -0.08 -0.4 0
v -1.52 -0.4 0
v -1.6 -0.4 0
v 0 -0.48 0
v -0.08 -0.48 0
v -1.52 -0.48 0
v -1.6 -0.48 0
v 0 -0.56 0
v -0.08 -0.56 0
v -1.52 -0.56 0
v -1.6 -0.56 0
v 0 -0.64 0
v -0.08 -0.64 0
v -1.52 -0.64 0
v -1.6 -0.64 0
v 0 -0.72 0
v -0.08 -0.72 0
v -1.52 -0.72 0
v -1.6 -0.72 0
v 0 -1.04 0
v -0.08 -1.04 0
v -0.08 -0.96 0
v 0 -0.96 0
v -1.52 -1.04 0
v -1.6 -1.04 0
v -1.6 -0.96 0
v -1.52 -0.96 0
v 0 -1.12 0
v -0.08 -1.12 0
v -1.52 -1.12 0
v -1.6 -1.12 0
v 0 -1.2 0
v -0.08 -1.2 0
v -1.52 -1.2 0
v -1.6 -1.2 0
v 0 -1.28 0
v -0.08 -1.28 0
v -1.52 -1.28 0
v -1.6 -1.28 0
v 0 -1.36 0
v -0.08 -1.36 0
v -1.52 -1.36 0
v -1.6 -1.36 0
v 0 -1.44 0
v -0.08 -1.44 0
v -1.52 -1.44 0
v -1.6 -1.44 0
v 0 -1.52 0
v -0.08 -1.52 0
v -1.52 -1.52 0
v -1.6 -1.52 0
v 0 -1.6 0
v -0.08 -1.6 0
v -0.16 -1.6 0
v -0.16 -1.52 0
v -0.24 -1.6 0
v -0.24 -1.52 0
v -0.32 -1.6 0
v -0.32 -1.52 0
v -0.4 -1.6 0
v -0.4 -1.52 0
v -0.48 -1.6 0
v -0.48 -1.52 0
v -0.56 -1.6 0
v -0.56 -1.52 0
v -0.64 -1.6 0
v -0.64 -1.52 0
v -0.96 -1.6 0
v -1.04 -1.6 0
v -1.04 -1.52 0
v -0.96 -1.52 0
v -1.12 -1.6 0
v -1.12 -1.52 0
v -1.2 -1.6 0
v -1.2 -1.52 0
v -1.28 -1.6 0
v -1.28 -1.52 0
v -1.36 -1.6 0
v -1.36 -1.52 0
v -1.44 -1.6 0
v -1.44 -1.52 0
v -1.52 -1.6 0
v -1.6 -1.6 0
v -0.16 -0.16 0
v -0.24 -0.16 0
v -0.32 -0.16 0
v -0.4 -0.16 0
v -0.48 -0.16 0
v -0.56 -0.16 0
v -0.64 -0.16 0
v -0.72 -0.16 0
v -0.8 -0.16 0
v -0.88 -0.16 0
v -0.96 -0.16 0
v -1.04 -0.16 0
v -1.12 -0.16 0
v -1.2 -0.16 0
v -1.28 -0.16 0
v -1.36 -0.16 0
v -1.44 -0.16 0
v -0.16 -0.24 0
v -0.24 -0.24 0
v -0.32 -0.24 0
v -0.4 -0.24 0
v -0.48 -0.24 0
v -0.56 -0.24 0
v -0.64 -0.24 0
v -0.72 -0.24 0
v -0.8 -0.24 0
v -0.88 -0.24 0
v -0.96 -0.24 0
v -1.04 -0.24 0
v -1.12 -0.24 0
v -1.2 -0.24 0
v -1.28 -0.24 0
v -1.36 -0.24 0
v -1.44 -0.24 0
v -0.16 -0.32 0
v -0.24 -0.32 0
v -0.32 -0.32 0
v -0.4 -0.32 0
v -0.48 -0.32 0
v -0.56 -0.32 0
v -0.64 -0.32 0
v -0.72 -0.32 0
v -0.8 -0.32 0
v -0.88 -0.32 0
v -0.96 -0.32 0
v -1.04 -0.32 0
v -1.12 -0.32 0
v -1.2 -0.32 0
v -1.28 -0.32 0
v -1.36 -0.32 0
v -1.44 -0.32 0
v -0.16 -0.4 0
v -0.24 -0.4 0
v -0.32 -0.4 0
v -0.4 -0.4 0
v -0.48 -0.4 0
v -0.56 -0.4 0
v -0.64 -0.4 0
v -0.72 -0.4 0
v -0.8 -0.4 0
v -0.88 -0.4 0
v -0.96 -0.4 0
v -1.04 -0.4 0
v -1.12 -0.4 0
v -1.2 -0.4 0
v -1.28 -0.4 0
v -1.36 -0.4 0
v -1.44 -0.4 0
v -0.16 -0.48 0
v -0.24 -0.48 0
v -0.32 -0.48 0
v -0.4 -0.48 0
v -0.48 -0.48 0
v -0.56 -0.48 0
v -0.64 -0.48 0
v -0.72 -0.48 0
v -0.8 -0.48 0
v -0.88 -0.48 0
v -0.96 -0.48 0
v -1.04 -0.48 0
v -1.12 -0.48 0
v -1.2 -0.48 0
v -1.28 -0.48 0
v -1.36 -0.48 0
v -1.44 -0.48 0
v -0.16 -0.56 0
v -0.24 -0.56 0
v -0.32 -0.56 0
v -0.4 -0.56 0
v -0.48 -0.56 0
v -0.56 -0.56 0
v -0.64 -0.56 0
v -0.72 -0.56 0
v -0.8 -0.56 0
v -0.88 -0.56 0
v -0.96 -0.56 0
v -1.04 -0.56 0
v -1.12 -0.56 0
v -1.2 -0.56 0
v -1.28 -0.56 0
v -1.36 -0.56 0
v -1.44 -0.56 0
v -0.16 -0.64 0
v -0.24 -0.64 0
v -0.32 -0.64 0
v -0.4 -0.64 0
v -0.48 -0.64 0
v -0.56 -0.64 0
v -0.64 -0.64 0
v -0.72 -0.64 0
v -0.8 -0.64 0
v -0.88 -0.64 0
v -0.96 -0.64 0
v -1.04 -0.64 0
v -1.12 -0.64 0
v -1.2 -0.64 0
v -1.28 -0.64 0
v -1.36 -0.64 0
v -1.44 -0.64 0
v -0.16 -0.72 0
v -0.24 -0.72 0
v -0.32 -0.72 0
v -0.4 -0.72 0
v -0.48 -0.72 0
v -0.56 -0.72 0
v -0.64 -0.72 0
v -0.72 -0.72 0
v -0.8 -0.72 0
v -0.88 -0.72 0
v -0.96 -0.72 0
v -1.04 -0.72 0
v -1.12 -0.72 0
v -1.2 -0.72 0
v -1.28 -0.72 0
v -1.36 -0.72 0
v -1.44 -0.72 0
v 0 -0.8 0
v -0.08 -0.8 0
v -0.16 -0.8 0
v -0.24 -0.8 0
v -0.32 -0.8 0
v -0.4 -0.8 0
v -0.48 -0.8 0
v -0.56 -0.8 0
v -0.64 -0.8 0
v -0.72 -0.8 0
v -0.8 -0.8 0
v -0.88 -0.8 0
v -0.96 -0.8 0
v -1.04 -0.8 0
v -1.12 -0.8 0
v -1.2 -0.8 0
v -1.28 -0.8 0
v -1.36 -0.8 0
v -1.44 -0.8 0
v -1.52 -0.8 0
v -1.6 -0.8 0
v 0 -0.88 0
v -0.08 -0.88 0
v -0.16 -0.88 0
v -0.24 -0.88 0
v -0.32 -0.88 0
v -0.4 -0.88 0
v -0.48 -0.88 0
v -0.56 -0.88 0
v -0.64 -0.88 0
v -0.72 -0.88 0
v -0.8 -0.88 0
v -0.88 -0.88 0
v -0.96 -0.88 0
v -1.04 -0.88 0
v -1.12 -0.88 0
v -1.2 -0.88 0
v -1.28 -0.88 0
v -1.36 -0.88 0
v -1.44 -0.88 0
v -1.52 -0.88 0
v -1.6 -0.88 0
v -0.16 -0.96 0
v -0.24 -0.96 0
v -0.32 -0.96 0
v -0.4 -0.96 0
v -0.48 -0.96 0
v -0.56 -0.96 0
v -0.64 -0.96 0
v -0.72 -0.96 0
v -0.8 -0.96 0
v -0.88 -0.96 0
v -0.96 -0.96 0
v -1.04 -0.96 0
v -1.12 -0.96 0
v -1.2 -0.96 0
v -1.28 -0.96 0
v -1.36 -0.96 0
v -1.44 -0.96 0
v -0.16 -1.04 0
v -0.24 -1.04 0
v -0.32 -1.04 0
v -0.4 -1.04 0
v -0.48 -1.04 0
v -0.56 -1.04 0
v -0.64 -1.04 0
v -0.72 -1.04 0
v -0.8 -1.04 0
v -0.88 -1.04 0
v -0.96 -1.04 0
v -1.04 -1.04 0
v -1.12 -1.04 0
v -1.2 -1.04 0
v -1.28 -1.04 0
v -1.36 -1.04 0
v -1.44 -1.04 0
v -0.16 -1.12 0
v -0.24 -1.12 0
v -0.32 -1.12 0
v -0.4 -1.12 0
v -0.48 -1.12 0
v -0.56 -1.12 0
v -0.64 -1.12 0
v -0.72 -1.12 0
v -0.8 -1.12 0
v -0.88 -1.12 0
v -0.96 -1.12 0
v -1.04 -1.12 0
v -1.12 -1.12 0
v -1.2 -1.12 0
v -1.28 -1.12 0
v -1.36 -1.12 0
v -1.44 -1.12 0
v -0.16 -1.2 0
v -0.24 -1.2 0
v -0.32 -1.2 0
v -0.4 -1.2 0
v -0.48 -1.2 0
v -0.56 -1.2 0
v -0.64 -1.2 0
v -0.72 -1.2 0
v -0.8 -1.2 0
v -0.88 -1.2 0
v -0.96 -1.2 0
v -1.04 -1.2 0
v -1.12 -1.2 0
v -1.2 -1.2 0
v -1.28 -1.2 0
v -1.36 -1.2 0
v -1.44 -1.2 0
v -0.16 -1.28 0
v -0.24 -1.28 0
v -0.32 -1.28 0
v -0.4 -1.28 0
v -0.48 -1.28 0
v -0.56 -1.28 0
v -0.64 -1.28 0
v -0.72 -1.28 0
v -0.8 -1.28 0
v -0.88 -1.28 0
v -0.96 -1.28 0
v -1.04 -1.28 0
v -1.12 -1.28 0
v -1.2 -1.28 0
v -1.28 -1.28 0
v -1.36 -1.28 0
v -1.44 -1.28 0
v -0.16 -1.36 0
v -0.24 -1.36 0
v -0.32 -1.36 0
v -0.4 -1.36 0
v -0.48 -1.36 0
v -0.56 -1.36 0
v -0.64 -1.36 0
v -0.72 -1.36 0
v -0.8 -1.36 0
v -0.88 -1.36 0
v -0.96 -1.36 0
v -1.04 -1.36 0
v -1.12 -1.36 0
v -1.2 -1.36 0
v -1.28 -1.36 0
v -1.36 -1.36 0
v -1.44 -1.36 0
v -0.16 -1.44 0
v -0.24 -1.44 0
v -0.32 -1.44 0
v -0.4 -1.44 0
v -0.48 -1.44 0
v -0.56 -1.44 0
v -0.64 -1.44 0
v -0.72 -1.44 0
v -0.8 -1.44 0
v -0.88 -1.44 0
v -0.96 -1.44 0
v -1.04 -1.44 0
v -1.12 -1.44 0
v -1.2 -1.44 0
v -1.28 -1.44 0
v -1.36 -1.44 0
v -1.44 -1.44 0
v -0.72 -1.52 0
v -0.8 -1.52 0
v -0.88 -1.52 0
v -0.72 -1.6 0
v -0.8 -1.6 0
v -0.88 -1.6 0

# Texture cooridinates (Count = 81)
vt 0.0001220703 0.3334554
vt 0.3332113 0.3334554
vt 0.3332113 0.6665446
vt 0.0001220703 0.6665446
vt 0.3334554 0.3334554
vt 0.6665446 0.3334554
vt 0.6665446 0.6665446
vt 0.3334554 0.6665446
vt 0.6667888 0.3334554
vt 0.9998779 0.3334554
vt 0.9998779 0.6665446
vt 0.6667888 0.6665446
vt 0.3334554 0.0001220703
vt 0.6665446 0.0001220703
vt 0.6665446 0.3332112
vt 0.3334554 0.3332112
vt 0.6667888 0.6667887
vt 0.9998779 0.6667887
vt 0.9998779 0.9998779
vt 0.6667888 0.9998779
vt 0.0001220703 0.6667887
vt 0.3332113 0.6667887
vt 0.3332113 0.9998779
vt 0.0001220703 0.9998779
vt 0.6667888 0.7778999
vt 0.8332112 0.7778999
vt 0.8332112 0.8887668
vt 0.6667888 0.8887668
vt 0.5001221 0.1112332
vt 0.6665446 0.1112332
vt 0.6665446 0.2221001
vt 0.5001221 0.2221001
vt 0.6667888 0.1112332
vt 0.8332112 0.1112332
vt 0.8332112 0.2221001
vt 0.6667888 0.2221001
vt 0.5001221 0.0001220703
vt 0.6665446 0.110989
vt 0.5001221 0.110989
vt 0.6667888 0.0001220703
vt 0.8332112 0.0001220703
vt 0.8332112 0.110989
vt 0.6667888 0.110989
vt 0.6667888 0.4445665
vt 0.8332112 0.4445665
vt 0.8332112 0.5554335
vt 0.6667888 0.5554335
vt 0.0001220703 0.2223443
vt 0.1665446 0.2223443
vt 0.1665446 0.3332112
vt 0.0001220703 0.3332112
vt 0.1667887 0.2223443
vt 0.3332113 0.2223443
vt 0.3332113 0.3332112
vt 0.1667887 0.3332112
vt 0.3334554 0.2223443
vt 0.4998779 0.2223443
vt 0.4998779 0.3332112
vt 0.0001220703 0.1112332
vt 0.1665446 0.1112332
vt 0.1665446 0.2221001
vt 0.0001220703 0.2221001
vt 0.1667887 0.1112332
vt 0.3332113 0.1112332
vt 0.3332113 0.2221001
vt 0.1667887 0.2221001
vt 0.3334554 0.1112332
vt 0.4998779 0.1112332
vt 0.4998779 0.2221001
vt 0.3334554 0.2221001
vt 0.0001220703 0.0001220703
vt 0.1665446 0.0001220703
vt 0.1665446 0.110989
vt 0.0001220703 0.110989
vt 0.1667887 0.0001220703
vt 0.3332113 0.0001220703
vt 0.3332113 0.110989
vt 0.1667887 0.110989
vt 0.4998779 0.0001220703
vt 0.4998779 0.110989
vt 0.3334554 0.110989

# Normal
vn 0 0 -1

# Groups (Count = 1)

g mesh_0001
f 1/1/1 2/2/1 3/3/1 4/4/1
f 2/5/1 5/6/1 6/7/1 3/8/1
f 5/5/1 7/6/1 8/7/1 6/8/1
f 7/5/1 9/6/1 10/7/1 8/8/1
f 9/5/1 11/6/1 12/7/1 10/8/1
f 11/5/1 13/6/1 14/7/1 12/8/1
f 13/5/1 15/6/1 16/7/1 14/8/1
f 15/5/1 17/6/1 18/7/1 16/8/1
f 17/5/1 19/6/1 20/7/1 18/8/1
f 19/5/1 21/6/1 22/7/1 20/8/1
f 21/5/1 23/6/1 24/7/1 22/8/1
f 23/5/1 25/6/1 26/7/1 24/8/1
f 25/5/1 27/6/1 28/7/1 26/8/1
f 27/5/1 29/6/1 30/7/1 28/8/1
f 29/5/1 31/6/1 32/7/1 30/8/1
f 31/5/1 33/6/1 34/7/1 32/8/1
f 33/5/1 35/6/1 36/7/1 34/8/1
f 35/5/1 37/6/1 38/7/1 36/8/1
f 37/5/1 39/6/1 40/7/1 38/8/1
f 39/9/1 41/10/1 42/11/1 40/12/1
f 43/13/1 44/14/1 2/15/1 1/16/1
f 45/13/1 46/14/1 41/15/1 39/16/1
f 47/13/1 48/14/1 44/15/1 43/16/1
f 49/13/1 50/14/1 46/15/1 45/16/1
f 51/13/1 52/14/1 48/15/1 47/16/1
f 53/13/1 54/14/1 50/15/1 49/16/1
f 55/13/1 56/14/1 52/15/1 51/16/1
f 57/13/1 58/14/1 54/15/1 53/16/1
f 59/13/1 60/14/1 56/15/1 55/16/1
f 61/13/1 62/14/1 58/15/1 57/16/1
f 63/13/1 64/14/1 60/15/1 59/16/1
f 65/13/1 66/14/1 62/15/1 61/16/1
f 67/13/1 68/14/1 64/15/1 63/16/1
f 69/13/1 70/14/1 66/15/1 65/16/1
f 71/17/1 72/18/1 68/19/1 67/20/1
f 73/21/1 74/22/1 70/23/1 69/24/1
f 75/9/1 76/10/1 77/11/1 78/12/1
f 79/1/1 80/2/1 81/3/1 82/4/1
f 83/13/1 84/14/1 76/15/1 75/16/1
f 85/13/1 86/14/1 80/15/1 79/16/1
f 87/13/1 88/14/1 84/15/1 83/16/1
f 89/13/1 90/14/1 86/15/1 85/16/1
f 91/13/1 92/14/1 88/15/1 87/16/1
f 93/13/1 94/14/1 90/15/1 89/16/1
f 95/13/1 96/14/1 92/15/1 91/16/1
f 97/13/1 98/14/1 94/15/1 93/16/1
f 99/13/1 100/14/1 96/15/1 95/16/1
f 101/13/1 102/14/1 98/15/1 97/16/1
f 103/13/1 104/14/1 100/15/1 99/16/1
f 105/13/1 106/14/1 102/15/1 101/16/1
f 107/21/1 108/22/1 104/23/1 103/24/1
f 108/5/1 109/6/1 110/7/1 104/8/1
f 109/5/1 111/6/1 112/7/1 110/8/1
f 111/5/1 113/6/1 114/7/1 112/8/1
f 113/5/1 115/6/1 116/7/1 114/8/1
f 115/5/1 117/6/1 118/7/1 116/8/1
f 117/5/1 119/6/1 120/7/1 118/8/1
f 119/9/1 121/10/1 122/11/1 120/12/1
f 123/1/1 124/2/1 125/3/1 126/4/1
f 124/5/1 127/6/1 128/7/1 125/8/1
f 127/5/1 129/6/1 130/7/1 128/8/1
f 129/5/1 131/6/1 132/7/1 130/8/1
f 131/5/1 133/6/1 134/7/1 132/8/1
f 133/5/1 135/6/1 136/7/1 134/8/1
f 135/5/1 137/6/1 105/7/1 136/8/1
f 137/17/1 138/18/1 106/19/1 105/20/1

g mesh_0002
f 44/25/1 139/26/1 5/27/1 2/28/1
f 139/25/1 140/26/1 7/27/1 5/28/1
f 140/25/1 141/26/1 9/27/1 7/28/1
f 141/25/1 142/26/1 11/27/1 9/28/1
f 142/25/1 143/26/1 13/27/1 11/28/1
f 143/25/1 144/26/1 15/27/1 13/28/1
f 144/25/1 145/26/1 17/27/1 15/28/1
f 145/25/1 146/26/1 19/27/1 17/28/1
f 146/25/1 147/26/1 21/27/1 19/28/1
f 147/25/1 148/26/1 23/27/1 21/28/1
f 148/25/1 149/26/1 25/27/1 23/28/1
f 149/25/1 150/26/1 27/27/1 25/28/1
f 150/25/1 151/26/1 29/27/1 27/28/1
f 151/29/1 152/30/1 31/31/1 29/32/1
f 152/33/1 153/34/1 33/35/1 31/36/1
f 153/33/1 154/34/1 35/35/1 33/36/1
f 154/33/1 155/34/1 37/35/1 35/36/1
f 155/33/1 45/34/1 39/35/1 37/36/1
f 48/25/1 156/26/1 139/27/1 44/28/1
f 156/25/1 157/26/1 140/27/1 139/28/1
f 157/25/1 158/26/1 141/27/1 140/28/1
f 158/25/1 159/26/1 142/27/1 141/28/1
f 159/25/1 160/26/1 143/27/1 142/28/1
f 160/25/1 161/26/1 144/27/1 143/28/1
f 161/25/1 162/26/1 145/27/1 144/28/1
f 162/25/1 163/26/1 146/27/1 145/28/1
f 163/25/1 164/26/1 147/27/1 146/28/1
f 164/25/1 165/26/1 148/27/1 147/28/1
f 165/25/1 166/26/1 149/27/1 148/28/1
f 166/25/1 167/26/1 150/27/1 149/28/1
f 167/25/1 168/26/1 151/27/1 150/28/1
f 168/29/1 169/30/1 152/31/1 151/32/1
f 169/33/1 170/34/1 153/35/1 152/36/1
f 170/33/1 171/34/1 154/35/1 153/36/1
f 171/33/1 172/34/1 155/35/1 154/36/1
f 172/33/1 49/34/1 45/35/1 155/36/1
f 52/25/1 173/26/1 156/27/1 48/28/1
f 173/25/1 174/26/1 157/27/1 156/28/1
f 174/25/1 175/26/1 158/27/1 157/28/1
f 175/25/1 176/26/1 159/27/1 158/28/1
f 176/25/1 177/26/1 160/27/1 159/28/1
f 177/25/1 178/26/1 161/27/1 160/28/1
f 178/25/1 179/26/1 162/27/1 161/28/1
f 179/25/1 180/26/1 163/27/1 162/28/1
f 180/25/1 181/26/1 164/27/1 163/28/1
f 181/25/1 182/26/1 165/27/1 164/28/1
f 182/25/1 183/26/1 166/27/1 165/28/1
f 183/25/1 184/26/1 167/27/1 166/28/1
f 184/25/1 185/26/1 168/27/1 167/28/1
f 185/29/1 186/30/1 169/31/1 168/32/1
f 186/33/1 187/34/1 170/35/1 169/36/1
f 187/33/1 188/34/1 171/35/1 170/36/1
f 188/33/1 189/34/1 172/35/1 171/36/1
f 189/33/1 53/34/1 49/35/1 172/36/1
f 56/25/1 190/26/1 173/27/1 52/28/1
f 190/25/1 191/26/1 174/27/1 173/28/1
f 191/25/1 192/26/1 175/27/1 174/28/1
f 192/25/1 193/26/1 176/27/1 175/28/1
f 193/25/1 194/26/1 177/27/1 176/28/1
f 194/25/1 195/26/1 178/27/1 177/28/1
f 195/25/1 196/26/1 179/27/1 178/28/1
f 196/25/1 197/26/1 180/27/1 179/28/1
f 197/25/1 198/26/1 181/27/1 180/28/1
f 198/25/1 199/26/1 182/27/1 181/28/1
f 199/25/1 200/26/1 183/27/1 182/28/1
f 200/25/1 201/26/1 184/27/1 183/28/1
f 201/25/1 202/26/1 185/27/1 184/28/1
f 202/29/1 203/30/1 186/31/1 185/32/1
f 203/33/1 204/34/1 187/35/1 186/36/1
f 204/33/1 205/34/1 188/35/1 187/36/1
f 205/33/1 206/34/1 189/35/1 188/36/1
f 206/33/1 57/34/1 53/35/1 189/36/1
f 60/25/1 207/26/1 190/27/1 56/28/1
f 207/25/1 208/26/1 191/27/1 190/28/1
f 208/25/1 209/26/1 192/27/1 191/28/1
f 209/25/1 210/26/1 193/27/1 192/28/1
f 210/25/1 211/26/1 194/27/1 193/28/1
f 211/25/1 212/26/1 195/27/1 194/28/1
f 212/25/1 213/26/1 196/27/1 195/28/1
f 213/25/1 214/26/1 197/27/1 196/28/1
f 214/25/1 215/26/1 198/27/1 197/28/1
f 215/25/1 216/26/1 199/27/1 198/28/1
f 216/25/1 217/26/1 200/27/1 199/28/1
f 217/25/1 218/26/1 201/27/1 200/28/1
f 218/25/1 219/26/1 202/27/1 201/28/1
f 219/37/1 220/14/1 203/38/1 202/39/1
f 220/40/1 221/41/1 204/42/1 203/43/1
f 221/40/1 222/41/1 205/42/1 204/43/1
f 222/40/1 223/41/1 206/42/1 205/43/1
f 223/40/1 61/41/1 57/42/1 206/43/1
f 64/25/1 224/26/1 207/27/1 60/28/1
f 224/25/1 225/26/1 208/27/1 207/28/1
f 225/25/1 226/26/1 209/27/1 208/28/1
f 226/25/1 227/26/1 210/27/1 209/28/1
f 227/25/1 228/26/1 211/27/1 210/28/1
f 228/25/1 229/26/1 212/27/1 211/28/1
f 229/25/1 230/26/1 213/27/1 212/28/1
f 230/25/1 231/26/1 214/27/1 213/28/1
f 231/25/1 232/26/1 215/27/1 214/28/1
f 232/25/1 233/26/1 216/27/1 215/28/1
f 233/25/1 234/26/1 217/27/1 216/28/1
f 234/25/1 235/26/1 218/27/1 217/28/1
f 235/25/1 236/26/1 219/27/1 218/28/1
f 236/25/1 237/26/1 220/27/1 219/28/1
f 237/25/1 238/26/1 221/27/1 220/28/1
f 238/25/1 239/26/1 222/27/1 221/28/1
f 239/25/1 240/26/1 223/27/1 222/28/1
f 240/25/1 65/26/1 61/27/1 223/28/1
f 68/25/1 241/26/1 224/27/1 64/28/1
f 241/25/1 242/26/1 225/27/1 224/28/1
f 242/25/1 243/26/1 226/27/1 225/28/1
f 243/25/1 244/26/1 227/27/1 226/28/1
f 244/25/1 245/26/1 228/27/1 227/28/1
f 245/25/1 246/26/1 229/27/1 228/28/1
f 246/25/1 247/26/1 230/27/1 229/28/1
f 247/25/1 248/26/1 231/27/1 230/28/1
f 248/25/1 249/26/1 232/27/1 231/28/1
f 249/25/1 250/26/1 233/27/1 232/28/1
f 250/25/1 251/26/1 234/27/1 233/28/1
f 251/25/1 252/26/1 235/27/1 234/28/1
f 252/25/1 253/26/1 236/27/1 235/28/1
f 253/25/1 254/26/1 237/27/1 236/28/1
f 254/25/1 255/26/1 238/27/1 237/28/1
f 255/25/1 256/26/1 239/27/1 238/28/1
f 256/25/1 257/26/1 240/27/1 239/28/1
f 257/25/1 69/26/1 65/27/1 240/28/1
f 72/25/1 258/26/1 241/27/1 68/28/1
f 258/25/1 259/26/1 242/27/1 241/28/1
f 259/25/1 260/26/1 243/27/1 242/28/1
f 260/25/1 261/26/1 244/27/1 243/28/1
f 261/25/1 262/26/1 245/27/1 244/28/1
f 262/25/1 263/26/1 246/27/1 245/28/1
f 263/25/1 264/26/1 247/27/1 246/28/1
f 264/25/1 265/26/1 248/27/1 247/28/1
f 265/25/1 266/26/1 249/27/1 248/28/1
f 266/25/1 267/26/1 250/27/1 249/28/1
f 267/25/1 268/26/1 251/27/1 250/28/1
f 268/25/1 269/26/1 252/27/1 251/28/1
f 269/25/1 270/26/1 253/27/1 252/28/1
f 270/25/1 271/26/1 254/27/1 253/28/1
f 271/25/1 272/26/1 255/27/1 254/28/1
f 272/25/1 273/26/1 256/27/1 255/28/1
f 273/25/1 274/26/1 257/27/1 256/28/1
f 274/25/1 73/26/1 69/27/1 257/28/1
f 275/44/1 276/45/1 72/46/1 71/47/1
f 276/25/1 277/26/1 258/27/1 72/28/1
f 277/25/1 278/26/1 259/27/1 258/28/1
f 278/25/1 279/26/1 260/27/1 259/28/1
f 279/25/1 280/26/1 261/27/1 260/28/1
f 280/25/1 281/26/1 262/27/1 261/28/1
f 281/25/1 282/26/1 263/27/1 262/28/1
f 282/25/1 283/26/1 264/27/1 263/28/1
f 283/25/1 284/26/1 265/27/1 264/28/1
f 284/25/1 285/26/1 266/27/1 265/28/1
f 285/25/1 286/26/1 267/27/1 266/28/1
f 286/25/1 287/26/1 268/27/1 267/28/1
f 287/25/1 288/26/1 269/27/1 268/28/1
f 288/25/1 289/26/1 270/27/1 269/28/1
f 289/25/1 290/26/1 271/27/1 270/28/1
f 290/25/1 291/26/1 272/27/1 271/28/1
f 291/25/1 292/26/1 273/27/1 272/28/1
f 292/25/1 293/26/1 274/27/1 273/28/1
f 293/25/1 294/26/1 73/27/1 274/28/1
f 294/44/1 295/45/1 74/46/1 73/47/1
f 296/44/1 297/45/1 276/46/1 275/47/1
f 297/25/1 298/26/1 277/27/1 276/28/1
f 298/25/1 299/26/1 278/27/1 277/28/1
f 299/48/1 300/49/1 279/50/1 278/51/1
f 300/52/1 301/53/1 280/54/1 279/55/1
f 301/52/1 302/53/1 281/54/1 280/55/1
f 302/52/1 303/53/1 282/54/1 281/55/1
f 303/52/1 304/53/1 283/54/1 282/55/1
f 304/52/1 305/53/1 284/54/1 283/55/1
f 305/52/1 306/53/1 285/54/1 284/55/1
f 306/52/1 307/53/1 286/54/1 285/55/1
f 307/52/1 308/53/1 287/54/1 286/55/1
f 308/52/1 309/53/1 288/54/1 287/55/1
f 309/52/1 310/53/1 289/54/1 288/55/1
f 310/56/1 311/57/1 290/58/1 289/16/1
f 311/25/1 312/26/1 291/27/1 290/28/1
f 312/25/1 313/26/1 292/27/1 291/28/1
f 313/25/1 314/26/1 293/27/1 292/28/1
f 314/25/1 315/26/1 294/27/1 293/28/1
f 315/44/1 316/45/1 295/46/1 294/47/1
f 78/44/1 77/45/1 297/46/1 296/47/1
f 77/25/1 317/26/1 298/27/1 297/28/1
f 317/25/1 318/26/1 299/27/1 298/28/1
f 318/59/1 319/60/1 300/61/1 299/62/1
f 319/63/1 320/64/1 301/65/1 300/66/1
f 320/63/1 321/64/1 302/65/1 301/66/1
f 321/63/1 322/64/1 303/65/1 302/66/1
f 322/63/1 323/64/1 304/65/1 303/66/1
f 323/63/1 324/64/1 305/65/1 304/66/1
f 324/63/1 325/64/1 306/65/1 305/66/1
f 325/63/1 326/64/1 307/65/1 306/66/1
f 326/63/1 327/64/1 308/65/1 307/66/1
f 327/63/1 328/64/1 309/65/1 308/66/1
f 328/63/1 329/64/1 310/65/1 309/66/1
f 329/67/1 330/68/1 311/69/1 310/70/1
f 330/25/1 331/26/1 312/27/1 311/28/1
f 331/25/1 332/26/1 313/27/1 312/28/1
f 332/25/1 333/26/1 314/27/1 313/28/1
f 333/25/1 82/26/1 315/27/1 314/28/1
f 82/44/1 81/45/1 316/46/1 315/47/1
f 76/25/1 334/26/1 317/27/1 77/28/1
f 334/25/1 335/26/1 318/27/1 317/28/1
f 335/59/1 336/60/1 319/61/1 318/62/1
f 336/63/1 337/64/1 320/65/1 319/66/1
f 337/63/1 338/64/1 321/65/1 320/66/1
f 338/63/1 339/64/1 322/65/1 321/66/1
f 339/63/1 340/64/1 323/65/1 322/66/1
f 340/63/1 341/64/1 324/65/1 323/66/1
f 341/63/1 342/64/1 325/65/1 324/66/1
f 342/63/1 343/64/1 326/65/1 325/66/1
f 343/63/1 344/64/1 327/65/1 326/66/1
f 344/63/1 345/64/1 328/65/1 327/66/1
f 345/63/1 346/64/1 329/65/1 328/66/1
f 346/67/1 347/68/1 330/69/1 329/70/1
f 347/25/1 348/26/1 331/27/1 330/28/1
f 348/25/1 349/26/1 332/27/1 331/28/1
f 349/25/1 350/26/1 333/27/1 332/28/1
f 350/25/1 79/26/1 82/27/1 333/28/1
f 84/25/1 351/26/1 334/27/1 76/28/1
f 351/25/1 352/26/1 335/27/1 334/28/1
f 352/59/1 353/60/1 336/61/1 335/62/1
f 353/63/1 354/64/1 337/65/1 336/66/1
f 354/63/1 355/64/1 338/65/1 337/66/1
f 355/63/1 356/64/1 339/65/1 338/66/1
f 356/63/1 357/64/1 340/65/1 339/66/1
f 357/63/1 358/64/1 341/65/1 340/66/1
f 358/63/1 359/64/1 342/65/1 341/66/1
f 359/63/1 360/64/1 343/65/1 342/66/1
f 360/63/1 361/64/1 344/65/1 343/66/1
f 361/63/1 362/64/1 345/65/1 344/66/1
f 362/63/1 363/64/1 346/65/1 345/66/1
f 363/67/1 364/68/1 347/69/1 346/70/1
f 364/25/1 365/26/1 348/27/1 347/28/1
f 365/25/1 366/26/1 349/27/1 348/28/1
f 366/25/1 367/26/1 350/27/1 349/28/1
f 367/25/1 85/26/1 79/27/1 350/28/1
f 88/25/1 368/26/1 351/27/1 84/28/1
f 368/25/1 369/26/1 352/27/1 351/28/1
f 369/59/1 370/60/1 353/61/1 352/62/1
f 370/63/1 371/64/1 354/65/1 353/66/1
f 371/63/1 372/64/1 355/65/1 354/66/1
f 372/63/1 373/64/1 356/65/1 355/66/1
f 373/63/1 374/64/1 357/65/1 356/66/1
f 374/63/1 375/64/1 358/65/1 357/66/1
f 375/63/1 376/64/1 359/65/1 358/66/1
f 376/63/1 377/64/1 360/65/1 359/66/1
f 377/63/1 378/64/1 361/65/1 360/66/1
f 378/63/1 379/64/1 362/65/1 361/66/1
f 379/63/1 380/64/1 363/65/1 362/66/1
f 380/67/1 381/68/1 364/69/1 363/70/1
f 381/25/1 382/26/1 365/27/1 364/28/1
f 382/25/1 383/26/1 366/27/1 365/28/1
f 383/25/1 384/26/1 367/27/1 366/28/1
f 384/25/1 89/26/1 85/27/1 367/28/1
f 92/25/1 385/26/1 368/27/1 88/28/1
f 385/25/1 386/26/1 369/27/1 368/28/1
f 386/59/1 387/60/1 370/61/1 369/62/1
f 387/63/1 388/64/1 371/65/1 370/66/1
f 388/63/1 389/64/1 372/65/1 371/66/1
f 389/63/1 390/64/1 373/65/1 372/66/1
f 390/63/1 391/64/1 374/65/1 373/66/1
f 391/63/1 392/64/1 375/65/1 374/66/1
f 392/63/1 393/64/1 376/65/1 375/66/1
f 393/63/1 394/64/1 377/65/1 376/66/1
f 394/63/1 395/64/1 378/65/1 377/66/1
f 395/63/1 396/64/1 379/65/1 378/66/1
f 396/63/1 397/64/1 380/65/1 379/66/1
f 397/67/1 398/68/1 381/69/1 380/70/1
f 398/25/1 399/26/1 382/27/1 381/28/1
f 399/25/1 400/26/1 383/27/1 382/28/1
f 400/25/1 401/26/1 384/27/1 383/28/1
f 401/25/1 93/26/1 89/27/1 384/28/1
f 96/25/1 402/26/1 385/27/1 92/28/1
f 402/25/1 403/26/1 386/27/1 385/28/1
f 403/59/1 404/60/1 387/61/1 386/62/1
f 404/63/1 405/64/1 388/65/1 387/66/1
f 405/63/1 406/64/1 389/65/1 388/66/1
f 406/63/1 407/64/1 390/65/1 389/66/1
f 407/63/1 408/64/1 391/65/1 390/66/1
f 408/63/1 409/64/1 392/65/1 391/66/1
f 409/63/1 410/64/1 393/65/1 392/66/1
f 410/63/1 411/64/1 394/65/1 393/66/1
f 411/63/1 412/64/1 395/65/1 394/66/1
f 412/63/1 413/64/1 396/65/1 395/66/1
f 413/63/1 414/64/1 397/65/1 396/66/1
f 414/67/1 415/68/1 398/69/1 397/70/1
f 415/25/1 416/26/1 399/27/1 398/28/1
f 416/25/1 417/26/1 400/27/1 399/28/1
f 417/25/1 418/26/1 401/27/1 400/28/1
f 418/25/1 97/26/1 93/27/1 401/28/1
f 100/25/1 419/26/1 402/27/1 96/28/1
f 419/25/1 420/26/1 403/27/1 402/28/1
f 420/71/1 421/72/1 404/73/1 403/74/1
f 421/75/1 422/76/1 405/77/1 404/78/1
f 422/75/1 423/76/1 406/77/1 405/78/1
f 423/75/1 424/76/1 407/77/1 406/78/1
f 424/75/1 425/76/1 408/77/1 407/78/1
f 425/75/1 426/76/1 409/77/1 408/78/1
f 426/75/1 427/76/1 410/77/1 409/78/1
f 427/75/1 428/76/1 411/77/1 410/78/1
f 428/75/1 429/76/1 412/77/1 411/78/1
f 429/75/1 430/76/1 413/77/1 412/78/1
f 430/75/1 431/76/1 414/77/1 413/78/1
f 431/13/1 432/79/1 415/80/1 414/81/1
f 432/25/1 433/26/1 416/27/1 415/28/1
f 433/25/1 434/26/1 417/27/1 416/28/1
f 434/25/1 435/26/1 418/27/1 417/28/1
f 435/25/1 101/26/1 97/27/1 418/28/1
f 104/25/1 110/26/1 419/27/1 100/28/1
f 110/25/1 112/26/1 420/27/1 419/28/1
f 112/25/1 114/26/1 421/27/1 420/28/1
f 114/25/1 116/26/1 422/27/1 421/28/1
f 116/25/1 118/26/1 423/27/1 422/28/1
f 118/25/1 120/26/1 424/27/1 423/28/1
f 120/25/1 122/26/1 425/27/1 424/28/1
f 122/25/1 436/26/1 426/27/1 425/28/1
f 436/25/1 437/26/1 427/27/1 426/28/1
f 437/25/1 438/26/1 428/27/1 427/28/1
f 438/25/1 126/26/1 429/27/1 428/28/1
f 126/25/1 125/26/1 430/27/1 429/28/1
f 125/25/1 128/26/1 431/27/1 430/28/1
f 128/25/1 130/26/1 432/27/1 431/28/1
f 130/25/1 132/26/1 433/27/1 432/28/1
f 132/25/1 134/26/1 434/27/1 433/28/1
f 134/25/1 136/26/1 435/27/1 434/28/1
f 136/25/1 105/26/1 101/27/1 435/28/1
f 121/44/1 439/45/1 436/46/1 122/47/1
f 439/44/1 440/45/1 437/46/1 436/47/1
f 440/44/1 441/45/1 438/46/1 437/47/1
f 441/44/1 123/45/1 126/46/1 438/47/1

